<svg width="1440" height="684" viewBox="0 0 1440 684" fill="none" xmlns="http://www.w3.org/2000/svg">
<g clip-path="url(#clip0_0_4227)">
<rect width="1440" height="684" fill="#012F34"/>
<mask id="mask0_0_4227" style="mask-type:luminance" maskUnits="userSpaceOnUse" x="0" y="0" width="1440" height="684">
<rect width="1440" height="684" fill="white"/>
</mask>
<g mask="url(#mask0_0_4227)">
<rect x="1440" y="584" width="100" height="100" transform="rotate(180 1440 584)" fill="#2C6269"/>
<path fill-rule="evenodd" clip-rule="evenodd" d="M1440 684C1495.23 684 1540 639.228 1540 584C1540 528.772 1495.23 484 1440 484C1384.77 484 1340 528.772 1340 584C1340 639.228 1384.77 684 1440 684ZM1440 617C1458.23 617 1473 602.225 1473 584C1473 565.775 1458.23 551 1440 551C1421.77 551 1407 565.775 1407 584C1407 602.225 1421.77 617 1440 617Z" fill="#014E56"/>
<path fill-rule="evenodd" clip-rule="evenodd" d="M1440 584H1340V588H1440V584ZM1440 592H1340V596H1440V592ZM1340 600H1440V604H1340V600ZM1440 608H1340V612H1440V608ZM1340 616H1440V620H1340V616ZM1440 624H1340V628H1440V624Z" fill="#79C8C7"/>
<path fill-rule="evenodd" clip-rule="evenodd" d="M1340 440H1344V444H1340V440ZM1351 440H1347V444H1351V440ZM1351 448H1347V452H1351V448ZM1347 456H1351V460H1347V456ZM1351 464H1347V468H1351V464ZM1347 472H1351V476H1347V472ZM1351 480H1347V484H1351V480ZM1354 440H1358V444H1354V440ZM1354 448H1358V452H1354V448ZM1358 456H1354V460H1358V456ZM1354 464H1358V468H1354V464ZM1358 472H1354V476H1358V472ZM1354 480H1358V484H1354V480ZM1340 448H1344V452H1340V448ZM1361 440H1365V444H1361V440ZM1361 448H1365V452H1361V448ZM1365 456H1361V460H1365V456ZM1361 464H1365V468H1361V464ZM1365 472H1361V476H1365V472ZM1361 480H1365V484H1361V480ZM1340 456H1344V460H1340V456ZM1368 440H1372V444H1368V440ZM1368 448H1372V452H1368V448ZM1372 456H1368V460H1372V456ZM1368 464H1372V468H1368V464ZM1372 472H1368V476H1372V472ZM1368 480H1372V484H1368V480ZM1340 464H1344V468H1340V464ZM1375 440H1379V444H1375V440ZM1375 448H1379V452H1375V448ZM1379 456H1375V460H1379V456ZM1375 464H1379V468H1375V464ZM1379 472H1375V476H1379V472ZM1375 480H1379V484H1375V480ZM1340 472H1344V476H1340V472ZM1382 440H1386V444H1382V440ZM1382 448H1386V452H1382V448ZM1386 456H1382V460H1386V456ZM1382 464H1386V468H1382V464ZM1386 472H1382V476H1386V472ZM1382 480H1386V484H1382V480ZM1340 480H1344V484H1340V480ZM1389 440H1393V444H1389V440ZM1389 448H1393V452H1389V448ZM1393 456H1389V460H1393V456ZM1389 464H1393V468H1389V464ZM1393 472H1389V476H1393V472ZM1389 480H1393V484H1389V480Z" fill="#79C8C7"/>
</g>
</g>
<defs>
<clipPath id="clip0_0_4227">
<rect width="1440" height="684" fill="white"/>
</clipPath>
</defs>
</svg>
